<?xml version="1.0" standalone="no"?>
<!DOCTYPE svg PUBLIC "-//W3C//DTD SVG 1.1//EN" "http://www.w3.org/Graphics/SVG/1.1/DTD/svg11.dtd" >
<svg xmlns="http://www.w3.org/2000/svg">
<metadata></metadata>
<defs>
<font id="geometrixmedium" horiz-adv-x="1139" >
<font-face units-per-em="2048" ascent="1638" descent="-410" />
<missing-glyph horiz-adv-x="512" />
<glyph horiz-adv-x="2048" />
<glyph horiz-adv-x="2048" />
<glyph unicode="&#xd;" horiz-adv-x="0" />
<glyph unicode=" "  horiz-adv-x="512" />
<glyph unicode="&#x09;" horiz-adv-x="512" />
<glyph unicode="&#xa0;" horiz-adv-x="512" />
<glyph unicode="!" horiz-adv-x="567" d="M154 100v2q0 27 8 50q9 20 28 41q18 17 43 26q18 6 52 10q30 0 51 -10q19 -5 41 -26q15 -16 29 -41q7 -17 10 -52q0 -28 -10 -49q-13 -26 -29 -43q-15 -10 -43 -24q-16 -7 -49 -11q-29 0 -52 11q-19 8 -40 26q-21 21 -31 41q-4 16 -8 49zM182 358v1194h201v-1194h-201z " />
<glyph unicode="&#x22;" horiz-adv-x="641" d="M84 879v557h166v-557h-166zM393 879v557h164v-557h-164z" />
<glyph unicode="#" horiz-adv-x="1575" d="M70 426l59 172h297l90 254h-313l59 172h318l153 434h193l-156 -434h252l156 434h188l-154 -434h291l-57 -172h-295l-88 -254h307l-59 -172h-307l-156 -430h-193l156 430h-252l-158 -430h-188l156 430h-299zM616 596h256l93 256h-256z" />
<glyph unicode="$" d="M119 432l178 10q0 -58 16 -102q15 -47 41 -80q30 -34 68 -57q33 -21 90 -33v514q-105 33 -170 72q-71 43 -117 94q-45 53 -67 115q-20 57 -23 145q0 88 25 154q23 66 76 120q48 52 118 82q33 14 70 22t88 13v158h104v-158q90 -9 154 -45q68 -30 119 -90q47 -52 76 -131 q24 -73 30 -168h-180q-7 65 -22 107q-15 52 -41 81q-27 36 -60 56q-25 15 -76 28v-495q104 -37 181 -80q78 -46 125 -96q51 -55 73 -121q25 -63 25 -144q0 -83 -29 -151q-23 -64 -80 -121q-49 -54 -127 -88q-78 -32 -168 -43v-182h-104v182q-91 6 -156 41q-67 33 -120 90 q-49 55 -82 131q-25 65 -35 170zM307 1108q0 -40 12 -78q14 -34 37 -63q27 -27 64 -49q30 -19 92 -39v2v467q-48 -12 -84 -29q-32 -15 -66 -51q-21 -27 -40 -74q-12 -33 -15 -86zM616 170q48 0 89 18q39 20 71 50q29 28 45 69q14 35 17 84q0 51 -15 86q-12 39 -41 70 q-24 30 -69 57q-41 26 -97 43v2v-479z" />
<glyph unicode="%" horiz-adv-x="1792" d="M98 1057v182q0 63 21 115t65 92q40 37 101 59q51 18 127 21q70 0 125 -21q57 -19 94 -59q41 -40 61 -92q18 -48 21 -121v-174q0 -69 -23 -119q-16 -45 -63 -90q-38 -32 -99 -59q-49 -18 -122 -21q-72 0 -125 21q-56 18 -97 58.5t-65 92.5q-18 45 -21 115zM266 1112 q0 -51 8 -90q11 -40 27 -61q14 -24 43 -37q23 -13 62 -13q35 0 61 13t43 37q14 23 25 61q7 27 10 88v74q0 50 -10 84q-8 38 -25 61q-14 24 -43 37q-24 12 -61 12q-35 0 -62 -12q-26 -13 -43 -37q-10 -16 -27 -61q-4 -27 -8 -86v2v-72zM459 -16l725 1544h151l-725 -1544h-151 zM1083 262v187q0 59 21 112q19 45 67 90q39 36 101 60q55 18 127 18q66 0 125 -18q55 -19 94 -58q39 -35 61 -92q18 -48 21 -123v-174q0 -70 -23 -117q-18 -48 -63 -90q-42 -37 -96 -57q-47 -13 -125 -16q-73 0 -125 16q-55 18 -99 57q-41 40 -65 90q-18 50 -21 115z M1251 322q0 -58 9 -93q10 -39 26 -61q13 -18 43 -35q28 -12 64 -12t59 10q24 12 43 37q14 22 25 61q7 27 10 90v68q0 56 -10 86q-5 33 -25 64q-15 23 -43 36q-23 13 -59 13t-62 -15q-24 -12 -45 -36q-14 -23 -26 -62q-5 -26 -9 -88v2v-65z" />
<glyph unicode="&#x26;" horiz-adv-x="1403" d="M55 412q0 76 24.5 145t78.5 131q47 57 133 121q76 57 203 125q-33 42 -58 78q-10 18 -20 37.5t-19 35.5q-4 14 -9 31t-13 39q-4 24 -8 64q0 64 20 120q22 58 66 99q43 43 96 63q49 20 123 23q68 0 121 -23q55 -18 98 -63q40 -37 65 -95q20 -45 23 -118q0 -50 -14 -92 q-13 -43 -43 -89q-28 -43 -70 -81q-54 -46 -96 -76l250 -373l231 213l125 -135l-258 -221l272 -371h-241l-164 238q-61 -65 -133 -121q-57 -46 -123 -78q-55 -31 -119 -43q-52 -11 -119 -14q-95 0 -166 28q-78 30 -135 90q-55 58 -90 140q-31 79 -31 172zM250 399 q0 -47 16 -86q21 -43 51 -75q27 -27 74 -54q32 -13 84 -16q35 0 82 12q45 12 92 41q53 27 105 68q54 38 118 96v2l-280 404q-97 -58 -162 -109q-68 -50 -104 -92q-35 -40 -58 -90q-18 -46 -18 -101zM551 1233q0 -27 4 -45q5 -22 18 -51q13 -24 31 -56q22 -29 41 -59v2 q31 15 68 43q30 27 49 51q13 18 29 56q6 19 10 61q0 30 -10 53q-7 25 -25 43q-19 19 -41 27q-15 4 -49 8q-30 0 -53 -10q-21 -5 -39 -27q-16 -17 -25 -43q-4 -18 -8 -53z" />
<glyph unicode="'" horiz-adv-x="334" d="M84 879v557h166v-557h-166z" />
<glyph unicode="(" horiz-adv-x="813" d="M184 565q0 161 23 283q23 131 68.5 261.5t113.5 246.5q69 123 164 235l143 -102q-74 -98 -139 -215q-59 -110 -98 -221q-31 -90 -60 -236q-18 -120 -18 -252q0 -127 18 -250q21 -130 58 -233q38 -105 100 -217q59 -110 139 -211l-143 -109q-92 118 -164 238 q-62 108 -115 242q-44 127 -67 260q-20 128 -23 280z" />
<glyph unicode=")" horiz-adv-x="813" d="M117 -346q74 93 139 211q62 109 100 217q34 99 58 233q18 120 18 250q0 129 -18 252q-21 131 -58 236q-37 113 -100 221q-58 107 -139 213l141 106q91 -109 164 -237q62 -107 115 -246q46 -125 69 -262q20 -118 23 -283q0 -156 -23 -280q-20 -128 -67 -260 q-45 -128 -115 -242q-65 -116 -166 -238z" />
<glyph unicode="*" horiz-adv-x="1024" d="M78 1202l63 199l322 -164l-47 356h190l-47 -356l322 164l63 -199l-352 -57l254 -256l-168 -125l-166 319l-168 -319l-168 125l254 256z" />
<glyph unicode="+" horiz-adv-x="1706" d="M254 526v166h514v529h170v-529h512v-166h-512v-526h-170v526h-514z" />
<glyph unicode="," horiz-adv-x="567" d="M45 -283l197 545l184 -88l-256 -516z" />
<glyph unicode="-" horiz-adv-x="651" d="M80 453v170h491v-170h-491z" />
<glyph unicode="." horiz-adv-x="567" d="M154 100v2q0 27 8 50q9 20 28 41q18 17 43 26q18 6 52 10q30 0 51 -10q19 -5 41 -26q15 -16 29 -41q7 -17 10 -52q0 -28 -10 -49q-13 -26 -29 -43q-15 -10 -43 -24q-16 -7 -49 -11q-29 0 -52 11q-19 8 -40 26q-21 21 -31 41q-4 16 -8 49z" />
<glyph unicode="/" horiz-adv-x="567" d="M-33 -188l484 1781h149l-483 -1781h-150z" />
<glyph unicode="0" d="M119 455v598q0 106 31 190q30 86 94 150q61 64 143 98q77 32 180 35q111 0 191 -33q83 -30 143 -96q58 -61 88 -154q31 -87 31 -205v-581q0 -109 -33 -195q-29 -83 -94 -151q-60 -63 -145 -97q-81 -30 -181 -30q-97 0 -180 30q-81 32 -143 97t-94 151q-31 84 -31 193z M305 518q0 -100 17 -164q15 -69 49 -116q29 -45 82 -72q46 -20 114 -23q65 0 115 23q47 23 82 70q28 42 47 116q13 57 16 164v2v467q0 99 -16 164q-12 72 -47 117q-32 46 -82 69q-49 25 -115 25q-62 0 -112 -25q-47 -20 -84 -69q-31 -45 -49 -117q-14 -56 -17 -166v-465z " />
<glyph unicode="1" d="M242 1067v193l477 268v-1528h-193v1231z" />
<glyph unicode="2" d="M104 0l621 922q18 26 41 65q13 23 29 60q9 21 16 53q6 24 6 49q0 48 -16 84q-12 36 -45 63q-31 28 -74 43q-35 12 -92 15q-60 0 -103 -17q-43 -15 -75 -49q-28 -27 -52 -76q-13 -36 -16 -100v-4h-194q0 97 28 168q32 75 90 133q60 57 138 86q73 26 178 29q96 0 174 -25 q76 -24 135 -74q53 -46 86 -116q26 -62 29 -150q0 -43 -9 -80q-7 -45 -22 -80q-14 -41 -41 -86q-34 -59 -59 -98l-433 -627h533v-188h-873z" />
<glyph unicode="3" d="M84 244l168 94q19 -43 53 -84q36 -39 66 -61q35 -25 74.5 -37.5t84.5 -12.5q68 0 127 23q59 24 105 70q45 44 69 102q20 49 23 127q0 76 -23 129q-22 60 -67 104q-45 45 -107 68q-52 19 -133 22q-30 0 -63 -6q-27 -5 -64 -18q-15 -6 -65 -31q-34 -16 -64 -41l-32 27 l450 616l-520 -10v180h838l-400 -571q95 -3 176 -37q81 -30 142 -94q54 -57 90 -144q30 -79 30 -178q0 -106 -36 -198q-34 -89 -107 -162q-72 -69 -164 -105q-85 -29 -198 -32q-79 0 -142 14q-70 13 -123 47q-62 40 -104 84t-84 115z" />
<glyph unicode="4" d="M86 365v88l754 1073h39v-989h157v-172h-157v-365h-172v365h-621zM332 528h381v568z" />
<glyph unicode="5" d="M109 246l147 100q21 -44 55 -86q35 -40 72 -63q32 -21 82 -41q42 -13 88 -13q66 0 119 23q48 22 96 70q41 42 63 104q18 53 21 129q0 72 -23 125q-18 57 -65 102q-43 46 -100 70q-47 19 -119 22q-50 0 -90 -8q-43 -6 -82 -24q-43 -19 -76 -41q-40 -30 -68 -60l-22 23v827 h725v-180h-553v-414q30 7 49 17q14 5 49 14q17 4 49 8q33 0 52 2q105 0 186 -34q81 -31 149 -99q62 -65 97 -155q29 -84 32 -195q0 -107 -34 -195q-31 -85 -103 -157q-65 -65 -157 -103q-87 -30 -195 -30q-72 0 -135 14q-65 13 -121 47q-63 39 -104 84q-43 45 -84 117z" />
<glyph unicode="6" d="M121 428q0 50 8 94q7 55 23 92q17 53 41 97q32 64 59 104l436 690h221l-409 -610q8 0 16 -2q8 0 16 4q9 0 17 2q8 0 14 2q19 0 29 2h24q94 0 172 -31q79 -31 142 -96q60 -60 92 -143q30 -80 33 -176q0 -48 -8 -88q-9 -51 -23 -84q-11 -35 -37 -76q-15 -30 -49 -70.5 t-72 -66.5q-28 -22 -86 -52q-42 -17 -96 -26q-33 -6 -100 -10q-108 0 -189 28q-84 29 -147 92q-58 58 -96 142q-31 78 -31 182zM307 434q0 -65 19 -119q19 -52 57 -92q36 -35 86 -59q50 -18 115 -21v2q59 0 110 19q47 20 90 63q36 36 60 95q18 51 18 116q0 66 -18 125 q-20 56 -56 94q-33 34 -88 58q-45 17 -114 20q-64 0 -111 -20q-48 -19 -90 -64q-34 -36 -59 -96q-19 -51 -19 -121z" />
<glyph unicode="7" d="M197 1335v170h882l-628 -1505h-201l565 1335h-618z" />
<glyph unicode="8" d="M98 424q0 81 17 135q16 66 47 113q26 42 80 90q44 38 110 69v3q-43 17 -84 49q-30 28 -59 69q-26 41 -37 84q-6 33 -10 103q0 85 26 153q28 67 86 123q57 54 132 80q71 26 161 29q94 0 164 -29q73 -24 129 -80q56 -53 86 -123q26 -61 29 -153q0 -53 -12 -103 q-13 -41 -37 -84q-26 -41 -60 -69q-28 -22 -86 -52q65 -30 113 -71q48 -39 80 -90q30 -50 45 -113q13 -52 16 -133q0 -97 -33 -176q-31 -82 -96 -144q-64 -61 -151 -92q-77 -25 -187 -28q-106 0 -186 28q-84 29 -150 92q-61 58 -100 144q-30 80 -33 176zM289 434 q0 -59 18 -115q19 -51 60 -92q38 -35 90 -59q43 -16 110 -21q61 0 111 21q46 17 90 59q36 36 59 92q18 45 21 115v2q0 67 -21 119q-18 57 -59 96q-38 41 -90 62q-46 17 -111 20q-60 0 -110 -20q-49 -19 -90 -62q-31 -35 -60 -98q-18 -52 -18 -119zM342 1139q0 -55 16 -92 q19 -46 48 -74q27 -28 71 -47q34 -14 90 -17q53 0 90 17q42 16 72 47q27 26 47 74q14 36 17 92v2q0 43 -17 84q-17 44 -47 73q-25 26 -74 48q-31 13 -88 16q-49 0 -88 -16q-39 -15 -71 -48q-29 -27 -50 -73q-13 -31 -16 -86z" />
<glyph unicode="9" d="M84 1047q0 44 6 88q7 47 21 82q14 45 34 75q23 38 52 70q33 39 71 68q33 25 86 51q44 20 97 32q33 7 102 11q100 0 186 -33q89 -32 150 -96q63 -60 96 -150q30 -78 33 -188q0 -49 -8 -86q-5 -37 -25 -90q-14 -49 -41 -95q-19 -39 -57 -102l-443 -684h-221l414 612 q-30 -4 -43 -8q-23 0 -31 -4q-16 0 -26 -4h-21q-94 0 -170 33q-76 30 -139 96q-63 67 -92 145q-31 80 -31 177zM272 1063q0 -63 19 -125q18 -52 57 -94q34 -34 88 -60q52 -18 117 -18q59 0 109 20t88 64q37 42 57 94q18 55 18 121q0 65 -18 121q-18 53 -53 92q-33 36 -86 59 q-45 18 -115 21v2q-62 0 -111 -25q-46 -17 -90 -61q-36 -40 -59 -94q-18 -49 -21 -117z" />
<glyph unicode=":" horiz-adv-x="567" d="M154 100v2q0 27 8 50q9 20 28 41q18 17 43 26q18 6 52 10q30 0 51 -10q19 -5 41 -26q15 -16 29 -41q7 -17 10 -52q0 -28 -10 -49q-13 -26 -29 -43q-15 -10 -43 -24q-16 -7 -49 -11q-29 0 -52 11q-19 8 -40 26q-21 21 -31 41q-4 16 -8 49zM154 971v2q0 26 8 47 q10 23 28 41q13 12 43 29q18 6 52 10q30 0 51 -10q20 -7 41 -27q11 -11 29 -43q6 -13 10 -49q0 -28 -10 -51q-12 -26 -29 -43q-13 -14 -43 -29q-16 -4 -49 -8q-27 0 -52 8q-18 8 -40 31q-19 18 -31 43q-4 16 -8 49z" />
<glyph unicode=";" horiz-adv-x="567" d="M41 -283l190 545l191 -88l-258 -516zM150 971v2q0 26 8 47q10 23 28 41q16 15 41 29q18 6 52 10q30 0 51 -10q20 -7 41 -27q13 -13 28 -43q7 -13 11 -49q0 -29 -11 -51q-10 -25 -28 -43q-15 -15 -43 -29q-16 -4 -49 -8q-27 0 -50 8q-17 7 -41 31q-20 20 -30 41 q-5 18 -8 51z" />
<glyph unicode="&#x3c;" horiz-adv-x="1706" d="M262 528v160l1180 488v-187l-934 -381l934 -381v-182z" />
<glyph unicode="=" horiz-adv-x="1706" d="M254 322v163h1196v-163h-1196zM254 731v168h1196v-168h-1196z" />
<glyph unicode="&#x3e;" horiz-adv-x="1706" d="M262 45v182l934 381l-934 381v187l1180 -488v-160z" />
<glyph unicode="?" horiz-adv-x="1006" d="M84 1159q3 105 35 178q30 81 90 138q58 57 137 88q70 25 176 28q100 0 174 -28q79 -26 138 -82q56 -55 88 -129q30 -70 30 -162q0 -56 -10 -96q-6 -45 -31 -86q-21 -46 -53 -80q-24 -31 -80 -76q-10 -10 -33 -27q-14 -10 -40 -32q-54 -41 -78 -66q-15 -14 -35 -39 q-10 -16 -14.5 -24.5t-14.5 -24.5q-9 -18 -20 -51q-3 -15 -5 -28t-6 -36q-1 -20 -1.5 -36t-2.5 -52v-8v-2v-57h-190v69q0 62 2 90q0 41 6 68q4 34 10 53q5 21 19 49q21 52 69 111q46 58 123 123q3 3 15 10q4 4 12 8l4 4l4 4q2 3 10 11q68 56 103 108q32 54 35 109 q0 53 -17 94q-13 42 -47 74q-29 29 -72 47q-33 13 -92 16q-53 0 -94 -16q-41 -11 -74 -49q-33 -35 -49 -78q-11 -39 -14 -98v-19zM299 98v2q0 29 10 50q8 19 29 40q13 14 43 29q14 6 49 10q31 0 51 -10q23 -6 43 -26q17 -17 27 -43q7 -17 10 -52q0 -28 -10 -49 q-6 -20 -27 -41q-19 -13 -43 -24q-15 -8 -51 -11q-27 0 -47 11q-23 10 -43 24q-21 21 -31 41q-6 14 -10 49z" />
<glyph unicode="A" horiz-adv-x="1489" d="M10 0l639 1567h170l662 -1567h-240l-137 360h-735l-142 -360h-217zM438 547h590l-246 629q0 3 -8 16q-6 23 -10 35q-6 19 -12 43q-8 27 -17 49q-9 -35 -14 -49q-4 -15 -12 -43q-4 -12 -7 -18.5t-6 -14.5q-3 -13 -8 -20z" />
<glyph unicode="B" horiz-adv-x="1270" d="M178 0v1565h266q76 0 138 -6q62 -5 106 -13q45 -6 82 -20q31 -10 68 -31q46 -26 88 -68q36 -36 65 -84q24 -39 39 -96q12 -49 12 -108q0 -47 -12 -92q-14 -49 -35 -82q-23 -36 -59 -72q-32 -29 -80 -57q77 -27 129 -62q55 -36 94 -88q37 -49 56 -115q18 -61 18 -137 q0 -92 -37 -170q-34 -78 -108 -141q-70 -61 -164 -94q-82 -26 -199 -29h-467zM383 182h207q92 0 153 15q68 19 111 51q46 33 68 84q19 45 22 114q0 68 -22 113q-20 50 -66 82q-42 33 -108 51q-60 14 -152 17l-213 2v-529zM383 891h168q67 0 123 12q49 14 92 49q37 31 57 78 q18 43 21 107q0 63 -21 106q-18 47 -57 80q-37 30 -96 47q-47 13 -133 16l-154 3v-498z" />
<glyph unicode="C" horiz-adv-x="1536" d="M88 778q0 95 14 172q19 95 48 160q30 73 75 141q46 67 107 125q51 51 117 94q60 40 135 68q66 25 149 41q76 12 164 12q83 0 160 -12q72 -12 145 -37q67 -24 129 -63q60 -36 117 -86l-131 -148q-44 38 -90 70q-44 28 -101 53q-44 17 -108 29q-39 6 -121 10 q-70 0 -121 -10q-53 -6 -110 -31q-50 -18 -101 -53q-53 -37 -88 -72q-44 -45 -78 -96q-33 -54 -55 -111q-20 -52 -35 -121q-12 -61 -12 -135q0 -65 12 -133q12 -63 35 -121q18 -48 55 -110q37 -58 78 -99q46 -41 88 -69q35 -24 99 -53q48 -18 110 -31q40 -6 123 -10 q76 0 127 10q69 13 117 33q52 21 98 55q47 30 86 78l135 -146q-48 -48 -119 -96q-61 -37 -133 -68q-51 -16 -147 -34q-66 -12 -164 -15q-89 0 -164 15q-75 12 -149 36q-75 30 -135 68q-65 43 -117 92q-57 57 -107 125q-44 71 -75 144q-24 59 -48 159q-11 73 -14 170z" />
<glyph unicode="D" horiz-adv-x="1505" d="M178 0v1565h326q112 0 210.5 -13.5t176.5 -40.5q166 -48 280 -149q116 -100 172 -246q57 -140 60 -338q0 -191 -60 -336q-54 -143 -172 -245q-108 -98 -280 -150q-157 -44 -387 -47h-326zM383 182h152q163 0 286 35q124 38 207 115q82 73 125 186q38 104 41 260 q0 154 -41 260q-40 110 -125 189q-79 73 -207 112q-121 37 -286 37l-152 2v-1196z" />
<glyph unicode="E" horiz-adv-x="1163" d="M178 0v1565h813v-187h-608v-487h608v-180h-608v-529h608v-182h-813z" />
<glyph unicode="F" horiz-adv-x="1126" d="M178 0v1565h813v-187h-608v-487h608v-180h-608v-711h-205z" />
<glyph unicode="G" horiz-adv-x="1792" d="M88 778q0 95 14 172q19 95 48 160q30 73 75 141q46 67 107 125q51 51 117 94q60 40 135 68q66 25 149 41q76 12 164 12q82 0 162 -12q85 -13 151 -41q70 -24 133 -65q56 -34 115 -93l-143 -141q-32 32 -88 72q-44 28 -101 53q-51 21 -112 33q-39 6 -121 10 q-70 0 -121 -10q-51 -5 -108 -31q-52 -19 -99 -53q-53 -37 -88 -72q-39 -41 -78 -98q-33 -54 -55 -111q-20 -52 -35 -121q-12 -61 -12 -133q0 -65 12 -133q12 -63 35 -121q18 -48 55 -110q37 -58 78 -99q43 -38 88 -71q41 -28 99 -51q50 -19 108 -31q39 -6 121 -10 q126 0 221 34q98 37 180 107q82 72 129 168q49 96 70 221l-559 2v186h772v-45q0 -78 -8 -135q-6 -66 -19 -123q-14 -63 -34 -110q-24 -62 -48 -99q-53 -93 -127 -170q-69 -72 -159 -122q-84 -48 -193 -72q-99 -25 -221 -25q-89 0 -164 15q-75 12 -149 36q-75 30 -135 68 q-65 43 -117 92q-57 57 -107 125q-44 71 -75 144q-24 59 -48 159q-11 73 -14 170z" />
<glyph unicode="H" horiz-adv-x="1585" d="M178 0v1565h205v-668h819v668h205v-1565h-205v715h-819v-715h-205z" />
<glyph unicode="I" horiz-adv-x="567" d="M178 0v1565h205v-1565h-205z" />
<glyph unicode="J" horiz-adv-x="977" d="M78 -31v193h41q82 0 119 2q53 6 100 18q43 9 82 29q22 11 72 43q18 14 47 49q19 31 30 64q13 32 19 94q6 58 6 141v776h-496v187h699v-1041q0 -144 -41 -245q-39 -100 -123 -177q-74 -63 -205 -102q-123 -30 -287 -33h-6h-6q-6 0 -10 2h-10h-19h-12z" />
<glyph unicode="K" horiz-adv-x="1339" d="M178 0v1565h205v-629v-21v-18q0 -16 -2 -25v-26v-10v-9q3 6 8 11q2 4 8 10q2 5 9 10q2 4 8 10q10 15 14 19q8 8 12 14l576 664h264l-657 -729q-5 -7 -19 -21t-26 -27l-13 -8q11 -7 19 -18q9 -6 20 -21q4 -4 6 -8l4 -4l680 -729h-282l-572 629q-2 0 -6 4q-3 7 -14 20 q-10 16 -21 25q-6 12 -18 24v-6v-8v-31q0 -16 2 -24v-23v-16v-594h-205z" />
<glyph unicode="L" horiz-adv-x="983" d="M178 0v1565h205v-1377h539v-188h-744z" />
<glyph unicode="M" horiz-adv-x="2034" d="M178 0v1565h203l596 -1116q4 -11 12 -31q5 -10 12 -31q2 -6 3.5 -12t5.5 -23q4 -20 6 -35q0 21 4 33q3 18 6 33q4 20 10 33q8 20 17 30l594 1119h204v-1565h-202l14 1063q0 18 2 35q0 30 4 49q5 44 8 61q3 30 13 72q-6 -26 -21 -55q-7 -20 -20 -54q-17 -39 -23 -49 q-12 -32 -22 -49l-586 -1089l-602 1122q-14 29 -27 49q-10 17 -20 41q-7 21 -15 37q-4 12 -6.5 19t-5.5 16q7 -31 14 -49q2 -7 9 -45q3 -23 6 -44q0 -24 2 -40l10 -1090h-205z" />
<glyph unicode="N" horiz-adv-x="1581" d="M178 0v1565h193l757 -1084q11 -12 21 -32q3 -4 5.5 -8.5t6 -10t8.5 -12.5q4 -3 11 -19q4 -4 10 -16q22 -43 27 -53q18 -43 24 -60q-8 44 -16 68q-9 50 -13 68q-4 36 -8 59q0 35 -2 53v1047h201v-1565h-166l-795 1128q-15 26 -36 56q-13 19 -27 45q-12 24 -19 41 q-8 24 -16 41q6 -24 9 -41t7 -39q4 -24 6.5 -39.5t4.5 -32.5q2 -25 6 -67q0 -41 2 -64v-1028h-201z" />
<glyph unicode="O" horiz-adv-x="1825" d="M88 778q0 99 16 172q18 89 48 158q29 74 75 143q46 67 107 125q51 51 117 94q63 42 135 68q66 25 149 41q76 12 162 12q84 0 164 -12q86 -13 149 -41q71 -24 136 -68q63 -41 116 -94q60 -57 105 -125q42 -60 78 -143q28 -69 45 -158q13 -67 16 -172q0 -93 -16 -170 q-14 -82 -45 -157q-31 -73 -76 -144q-41 -61 -105 -125q-53 -50 -118 -94q-61 -40 -134 -68q-68 -24 -149 -36q-66 -12 -166 -15q-92 0 -164 15q-75 12 -149 36q-66 25 -133 68q-65 43 -119 94q-57 57 -107 125q-44 71 -75 144q-26 61 -48 157q-11 73 -14 170zM297 778 q0 -65 12 -133q13 -67 35 -123q18 -48 55 -110q38 -54 78 -97q43 -38 88 -71q41 -28 99 -51q48 -18 110 -31q39 -6 121 -10v2q70 0 125 8q61 9 110 31q55 19 101 51q44 28 88 71q41 41 76 97q32 50 57 110q21 58 33 123q12 61 12 133q0 65 -12 133q-9 61 -33 123 q-21 58 -57 111q-31 49 -78 96q-35 35 -88 72q-44 28 -101 53q-55 22 -110 31q-39 6 -123 10q-70 0 -121 -10q-53 -6 -110 -31q-52 -19 -99 -53q-53 -37 -88 -72q-42 -43 -78 -94q-33 -54 -55 -111q-18 -51 -35 -123q-12 -61 -12 -135z" />
<glyph unicode="P" horiz-adv-x="1147" d="M178 0v1565h334q131 0 242 -37q107 -35 188 -107q80 -68 119 -164q38 -89 41 -210q0 -114 -39 -205q-37 -92 -115 -164q-73 -67 -176 -107q-91 -31 -219 -34l-170 2v-539h-205zM383 725h162q77 0 145 18q69 24 111 66q46 45 69 106q20 54 23 140q0 77 -25 137 q-23 58 -73 102q-49 40 -121 62q-63 17 -162 20l-129 2v-653z" />
<glyph unicode="Q" horiz-adv-x="1825" d="M88 778q0 99 16 172q18 89 48 158q29 74 75 143q46 67 107 125q51 51 117 94q63 42 135 68q66 25 149 41q76 12 162 12q84 0 164 -12q86 -13 149 -41q71 -24 136 -68q63 -41 116 -94q60 -57 105 -125q42 -60 78 -143q28 -69 45 -158q13 -67 16 -172q0 -78 -12 -155 q-9 -78 -35 -142q-26 -66 -62 -125q-32 -56 -81 -110l170 -164l-125 -129l-172 174q-38 -35 -97 -72q-52 -29 -110 -49q-53 -13 -133 -26q-47 -7 -152 -11q-94 0 -166 15q-75 12 -149 36q-74 28 -133 66q-58 38 -115 92q-60 60 -107 127q-44 71 -75 144q-24 59 -48 159 q-13 68 -16 170zM297 778q0 -66 12 -131q13 -67 35 -123q18 -48 55 -110q43 -62 78 -99q43 -38 88 -71q45 -29 101 -51q50 -19 108 -31q39 -6 121 -10q47 0 94 6q52 7 92 20q42 12 88 33q43 18 84 47v2l-174 168l129 133l170 -178q23 36 52 98q22 52 36 101q11 32 23 98 q6 49 6 98q0 70 -12 135q-9 58 -33 121q-20 55 -55 111q-31 49 -78 96q-31 34 -86 72q-44 28 -101 53q-55 23 -112 31q-39 6 -123 10q-70 0 -121 -10q-53 -6 -110 -31q-52 -19 -99 -53q-53 -37 -88 -72q-44 -45 -78 -96q-33 -54 -55 -111q-20 -52 -35 -121q-12 -61 -12 -135 z" />
<glyph unicode="R" horiz-adv-x="1262" d="M178 0v1565h359q143 0 249 -35q112 -32 187 -92q76 -61 114 -152q36 -82 39 -199q0 -106 -32 -192.5t-99 -153.5q-64 -67 -151 -104q-80 -30 -189 -33l-12 2l551 -606h-256l-555 637v-637h-205zM383 762h145q94 0 168 18q72 20 123 62q51 40 74 100q24 62 27 137 q0 73 -27 129q-25 57 -76 92q-46 35 -127 58q-73 18 -172 18l-135 2v-616z" />
<glyph unicode="S" horiz-adv-x="1262" d="M94 436l207 10q0 -75 23 -124q21 -53 63 -95q42 -34 100 -59q58 -18 134 -18q72 0 120 16q50 14 97 49q43 38 61 78q18 44 21 98q0 53 -17 96q-16 46 -47 76q-19 19 -41 33q-8 5 -27 16t-30 17q-20 9 -76 33q-42 15 -90 32q-7 3 -21 6q-12 3 -28 11q-97 32 -172 69 q-71 35 -119 74q-16 14 -59 61q-23 28 -41 72q-17 41 -25 84q-5 34 -8 96q0 96 31 174q30 79 96 136q64 58 151 86q80 25 195 28q112 0 205 -30q85 -30 157 -93q68 -62 105 -149.5t43 -198.5l-207 2q-6 77 -33 129q-21 56 -59 95q-38 37 -92 57q-49 18 -117 18 q-59 0 -115 -18q-46 -14 -88 -51q-35 -31 -59 -80q-19 -42 -19 -105q0 -28 6 -55q13 -40 17 -49q8 -18 24 -41q15 -20 35 -35q1 -1 35 -22q7 -4 45 -21q28 -13 55 -24q18 -6 30 -9.5t36 -11.5q8 -2 15.5 -4t19.5 -6q17 -3 26 -8q137 -45 224 -97q92 -48 143 -102 q46 -46 76 -123q24 -67 24 -156q0 -91 -37 -174q-32 -74 -106 -139q-69 -60 -164 -90q-91 -31 -203 -31q-107 0 -202 31q-88 27 -160 92q-35 34 -60 67.5t-49 80.5q-37 89 -49 196z" />
<glyph unicode="T" horiz-adv-x="1036" d="M16 1378v187h1004v-187h-399v-1378h-203v1378h-402z" />
<glyph unicode="U" horiz-adv-x="1532" d="M166 586v979h205v-967q0 -107 24 -190q26 -82 78 -140q49 -55 125 -86q68 -25 168 -28q97 0 166 28q73 28 125 86q48 53 76 140q24 79 24 188v969h207v-977q0 -146 -41 -256.5t-125 -196.5q-77 -80 -190 -125q-105 -38 -242 -41q-138 0 -246 41q-110 42 -190 125 q-78 80 -123 197q-38 104 -41 254z" />
<glyph unicode="V" horiz-adv-x="1309" d="M-8 1565h213l377 -1073q0 -5 2 -11q0 -8 4 -12q27 -86 43 -139t26 -103q14 72 29 119q20 73 47 141v5l375 1073h211l-582 -1565h-172z" />
<glyph unicode="W" horiz-adv-x="1991" d="M-16 1565h213l303 -1078q4 -14 6 -24t4 -21q4 -14 6 -24t4 -21q4 -14 6 -26t4 -23q2 -5 3.5 -14t3.5 -19t4 -22q4 30 8 47q4 30 8 45q0 12 4 21q4 12 6 20q0 10 4 18q3 12 7 19l321 1102h193l313 -1080v-8q0 -4 2 -8q4 -14 14 -50.5t11 -39.5q4 -12 7.5 -27.5l7 -31 t7.5 -27.5q3 22 12 59q4 13 6.5 23.5t6.5 24.5t10 34q3 15 6 27q2 8 6 20l299 1084h207l-467 -1565h-172l-338 1141q-9 36 -14 51q-2 8 -3.5 15.5t-3.5 15.5t-3 16q-3 18 -9 39q0 15 -6 35q-8 -53 -16 -82q-11 -52 -27 -92h-2l-334 -1139h-149z" />
<glyph unicode="X" horiz-adv-x="1352" d="M10 0l547 797l-516 768h225l346 -508q9 -13 21 -37q12 -16 18 -29q8 -16 15 -24q3 -7 5.5 -13t4.5 -12q4 16 10 27q4 8 5.5 11.5t8.5 16.5q3 5 7 12.5t8 14.5q12 20 18 31l348 510h230l-518 -766l542 -799h-227l-375 549l-6 6q0 4 -6 10q-3 5 -5.5 9t-6.5 10 q-4 12 -11 18q-8 16 -14 27q-4 16 -8 26q-4 -16 -10 -24q-7 -15 -15 -25q-8 -16 -16 -28q-14 -22 -23 -31l-368 -547h-234z" />
<glyph unicode="Y" horiz-adv-x="1253" d="M0 1565h236l362 -676q3 -7 5.5 -13t6.5 -16q4 -6 8 -18q4 -5 9 -17q4 -8 6 -14q0 8 4 14q3 7 6 17q1 2 2 5t6 13q3 10 13 25l362 680h229l-522 -934v-631h-205v633z" />
<glyph unicode="Z" horiz-adv-x="1270" d="M8 0l783 1247q19 33 27.5 45t14.5 20t11 15l4 4l4 4q1 3 8 11q8 8 16.5 16t16.5 14l-803 2v187h1131l-770 -1225q-13 -21 -37 -57q-11 -21 -29 -39q-8 -8 -12 -17q-8 -8 -13 -16q-8 -8 -14 -16q-3 -3 -5.5 -6t-6.5 -9l844 2v-182h-1170z" />
<glyph unicode="[" horiz-adv-x="631" d="M178 -444v2009h418v-160h-217v-1690h217v-159h-418z" />
<glyph unicode="\" horiz-adv-x="567" d="M-33 1593h152l481 -1781h-149z" />
<glyph unicode="]" horiz-adv-x="631" d="M35 -285h217v1690h-217v160h416v-2009h-416v159z" />
<glyph unicode="_" horiz-adv-x="1024" d="M0 -309h1024v-172h-1024v172z" />
<glyph unicode="a" horiz-adv-x="1360" d="M78 539q0 121 37 225q36 97 112 176q70 72 172 115q99 36 224 39q65 0 118 -15q54 -12 109 -37q46 -22 94 -61q43 -37 80 -86v178h176v-1073h-188v174q-29 -43 -76 -84q-41 -37 -90 -59q-45 -23 -105 -33q-38 -6 -118 -10q-62 0 -111 8q-60 7 -104 29q-54 23 -97 53 q-42 30 -84 72q-33 33 -65 81q-16 28 -47 95q-15 37 -29 102q-4 37 -8 111zM274 537q0 -84 27 -158q24 -67 80 -123q50 -53 119 -82q60 -22 147 -27v3q79 0 150 24q67 24 118 82q53 53 80 123q24 66 27 158q0 86 -27 153q-23 68 -80 125q-48 55 -118 82q-65 26 -150 29 q-85 0 -147 -29q-64 -24 -119 -82q-54 -54 -80 -125q-24 -67 -27 -153z" />
<glyph unicode="b" horiz-adv-x="1360" d="M160 0v1552h174v-655q30 42 78 84q42 38 96 61q52 25 108 37t119 15q123 0 221 -39q100 -38 174 -115q75 -73 113 -176q37 -98 37 -225q0 -64 -10 -113q-6 -50 -27 -102q-21 -56 -47 -93q-24 -42 -63 -81q-35 -35 -86 -70q-38 -27 -97 -53q-34 -14 -104 -29 q-36 -6 -111 -10q-70 0 -119 10q-58 6 -104 33q-49 21 -90 59q-39 36 -76 82v-172h-186zM338 537q0 -88 27 -158q25 -69 77 -123q50 -53 119 -82q63 -22 150 -27v3q79 0 146.5 24t119.5 82q47 47 78 123q23 68 26 158q0 85 -26 153q-27 74 -78 125q-49 55 -119 82 q-62 26 -147 29q-85 0 -150 -29q-64 -24 -119 -82q-47 -51 -77 -125q-24 -63 -27 -153z" />
<glyph unicode="c" horiz-adv-x="1098" d="M80 535q0 64 8 116q9 54 31 109q17 39 51 96q29 45 70 86q30 31 79 68q43 27 95 49q43 16 104 31q38 6 117 10q63 0 108 -10q48 -7 97 -25q40 -13 88 -43q44 -25 82 -59l-121 -140q-23 23 -53 47q-23 16 -60 35q-35 14 -65 19q-26 5 -76 8q-82 0 -141 -29 q-61 -27 -115 -84q-49 -55 -74 -127q-24 -70 -24 -157q0 -86 24 -160q26 -68 74 -125q48 -54 113 -84q60 -24 143 -27q42 0 78 8q43 9 71 23q23 11 62 37q29 23 49 51l125 -137q-41 -38 -88 -70q-46 -28 -90 -45q-10 -3 -99 -22q-34 -7 -108 -11q-67 0 -115 11 q-57 9 -106 26q-49 19 -95 49q-51 35 -79 66q-31 34 -70 86q-29 50 -51 98q-19 52 -31 109q-4 39 -8 117z" />
<glyph unicode="d" horiz-adv-x="1378" d="M78 539q0 61 8 110q10 59 29 103q21 56 47 92q28 44 65 82q38 37 88 71q38 26 99 52q51 20 108 32q53 13 113 13q63 0 119 -13q54 -9 108 -32q53 -21 90 -54q42 -29 76 -75v632h193v-1552h-174v162q-38 -47 -86 -80q-45 -32 -97 -55q-40 -16 -108 -29q-39 -6 -121 -10 q-128 0 -225 35q-98 36 -179 112q-70 73 -114 178q-36 95 -39 226zM279 541q0 -43 7 -84.5t19 -73.5q26 -69 80 -123q51 -54 121 -82q65 -23 151 -26q86 0 153.5 25.5t121.5 82.5q51 51 80 123q23 68 26 158q0 85 -26 153t-80 125q-51 54 -121 80q-61 26 -154 29v2 q-79 0 -151 -31q-64 -23 -121 -80q-51 -54 -80 -125q-23 -64 -26 -153z" />
<glyph unicode="e" horiz-adv-x="1280" d="M82 526q0 128 36.5 232t114.5 182q78 80 177 119q95 38 225 41q124 0 227 -43.5t180 -126.5q74 -80 115 -195q36 -105 39 -250v-12h-926q6 -76 35 -135q32 -60 82 -107q54 -43 121 -69q59 -20 147 -23q61 0 101 11q55 14 94 34q51 27 86 54q37 28 80 75l135 -106 q-51 -63 -109 -107q-57 -44 -116 -73q-52 -23 -129 -39q-67 -12 -148 -15q-64 0 -123 13q-55 8 -112 30q-54 22 -103 56q-44 29 -88 75q-17 22 -59 80q-19 32 -45 92q-15 38 -29 103q-4 35 -8 104zM270 625v2h715q-6 63 -37 121q-28 57 -78 98q-49 43 -108 63 q-51 20 -129 23q-75 0 -133 -23q-61 -22 -111 -65q-48 -42 -80 -99q-25 -50 -39 -120z" />
<glyph unicode="f" horiz-adv-x="633" d="M53 913v160h162v119q0 95 21 164q21 71 63 113.5t113 66.5q68 24 166 27l2 -179h-11q-47 0 -77 -10q-28 -5 -48 -24q-15 -17 -24 -56q-5 -27 -8 -98v-123h168v-160h-168v-913h-197v913h-162z" />
<glyph unicode="g" horiz-adv-x="1360" d="M94 539q0 121 37 225q38 99 115 176q71 74 174 115q97 36 221 39q65 0 121 -15q55 -12 108 -37q49 -24 95 -61q43 -39 82 -86v178h174v-919q0 -148 -37 -265q-37 -108 -111 -188q-75 -78 -182 -117q-108 -36 -252 -39q-95 0 -162 17q-78 13 -141 45q-58 26 -121 76 q-56 42 -104 104l151 113q43 -54 78 -80q32 -26 92 -60q40 -17 103 -34q49 -13 110 -13q94 0 164 27q68 23 121 76q45 46 69 125q25 72 25 172v61q-27 -42 -72 -84q-33 -30 -86 -59q-44 -23 -104 -33q-39 -6 -121 -10q-63 0 -109 10q-58 7 -104 29q-51 22 -96 53 q-40 28 -84 70q-34 33 -68 81q-7 13 -47 95q-12 32 -29 102q-6 36 -10 111zM297 537q0 -88 27 -158q25 -69 77 -123q50 -53 119 -82q63 -22 150 -27v3q79 0 146.5 24t119.5 82q47 47 78 123q23 68 26 158q0 85 -26 153q-27 74 -78 125q-49 55 -119 82q-62 26 -147 29 q-85 0 -150 -29q-64 -24 -119 -82q-47 -51 -77 -125q-24 -63 -27 -153z" />
<glyph unicode="h" horiz-adv-x="1212" d="M164 0v1552h192v-602q31 34 68 62q33 21 76 45q33 17 82 26q29 7 88 11q89 0 164 -33q73 -31 126.5 -94.5t79.5 -149.5q24 -80 27 -196v-621h-195v602q0 86 -14 146q-13 63 -41 102q-27 36 -74 57q-38 18 -106 21q-73 0 -123 -23q-48 -17 -88 -61q-30 -40 -51 -105 q-19 -60 -19 -145v-594h-192z" />
<glyph unicode="i" horiz-adv-x="512" d="M125 1432v2q0 24 8 47q10 24 29 43q15 15 43 28q16 7 51 11q29 0 49 -11q27 -10 43 -28q20 -21 27 -41q7 -16 10 -51q0 -28 -10 -52q-5 -17 -27 -41q-15 -15 -43 -28q-15 -4 -49 -8q-27 0 -51 8q-18 7 -41 30q-23 25 -31 41q-5 17 -8 50zM156 0v1073h192v-1073h-192z" />
<glyph unicode="j" horiz-adv-x="528" d="M43 -455l2 174q29 0 55 13q23 8 41 32q14 17 23 54q5 23 8 71v1184h197v-1106q0 -102 -21 -182q-18 -76 -57 -129q-35 -46 -103 -78q-62 -27 -145 -33zM141 1432v2q0 26 11 47q10 24 28 43q18 16 41 28q16 7 49 11q31 0 52 -11q25 -9 45 -28q16 -18 28 -41q5 -13 11 -51 q0 -26 -11 -52q-7 -16 -30 -41q-15 -14 -43 -28q-18 -5 -52 -8q-26 0 -49 8q-18 9 -41 28q-14 15 -28 43q-7 16 -11 50z" />
<glyph unicode="k" horiz-adv-x="1108" d="M164 0v1552h186v-931l471 452h232l-545 -489l563 -584h-250l-471 520v-520h-186z" />
<glyph unicode="l" horiz-adv-x="512" d="M162 0v1552h186v-1552h-186z" />
<glyph unicode="m" horiz-adv-x="1858" d="M164 0v1073h184v-123q37 37 70 62q25 20 71 47q39 16 78 24q28 7 84 11q56 0 90 -11q45 -9 82 -32q33 -17 72 -56q25 -22 66 -75q36 42 75 75q37 31 86 56q40 20 95 32q33 7 102 11q88 0 162 -33q74 -32 125 -94q51 -61 77 -152q24 -80 27 -194v-621h-186v602 q0 84 -15 143q-12 61 -43 101q-25 40 -69 61q-40 18 -103 21q-71 0 -116 -21q-46 -17 -84 -61q-30 -38 -50 -105q-13 -52 -16 -147v-594h-182v602q0 84 -15 143q-12 61 -43 101q-25 41 -69 61q-40 18 -103 21q-71 0 -116 -21q-46 -17 -84 -61q-31 -39 -49 -105 q-14 -51 -17 -147v-594h-186z" />
<glyph unicode="n" horiz-adv-x="1212" d="M164 0v1073h186v-123q38 38 72 62q33 25 78 45q35 16 82 26q29 7 88 11q89 0 164 -33q73 -31 126.5 -94.5t79.5 -149.5q24 -80 27 -196v-621h-188v602q0 82 -17 143q-12 60 -43 103q-26 38 -76 59q-38 18 -106 21q-75 0 -125 -23q-47 -16 -90 -61q-30 -36 -53 -105 q-19 -60 -19 -145v-594h-186z" />
<glyph unicode="o" horiz-adv-x="1266" d="M80 535q0 62 8 114q9 56 31 107q16 48 49 96q23 34 70 84q34 38 84 70q39 28 96 51q45 19 102 33q38 6 113 10v2q58 0 112 -12q55 -11 105 -31q45 -17 94 -51q43 -31 84 -72q40 -40 68 -84q29 -47 49 -96q17 -47 31 -107q6 -38 10 -114q0 -66 -10 -115q-10 -54 -31 -109 q-15 -40 -49 -96q-27 -41 -70 -84q-38 -38 -84 -70q-45 -28 -94 -49q-36 -13 -105 -28q-35 -7 -110 -11q-65 0 -113 11q-56 10 -102 28q-48 19 -96 49q-46 33 -84 70q-44 48 -70 84q-32 52 -49 96q-19 48 -31 107q-4 39 -8 117zM281 535q0 -86 24 -160q26 -68 74 -125 q52 -58 115 -86q58 -24 139 -27v2q76 0 139 25q62 27 112.5 83.5t73.5 127.5q25 69 25 160q0 85 -25 157q-23 68 -73 127q-48 54 -113 84q-56 26 -139 29q-82 0 -141 -29q-62 -27 -113 -84q-48 -54 -74 -129q-24 -67 -24 -155z" />
<glyph unicode="p" horiz-adv-x="1360" d="M160 -444v1517h174v-176q30 42 78 84q42 38 96 61q52 25 108 37t119 15q123 0 221 -39q100 -38 174 -115q75 -73 113 -176q37 -98 37 -225q0 -64 -10 -113q-6 -50 -27 -102q-21 -56 -47 -93q-24 -42 -63 -81q-35 -35 -86 -70q-38 -27 -97 -53q-34 -14 -104 -29 q-36 -6 -111 -10q-70 0 -119 10q-58 6 -104 33q-49 21 -90 59q-39 36 -76 82v-616h-186zM338 537q0 -88 27 -158q25 -69 77 -123q50 -53 119 -82q63 -22 150 -27v3q79 0 146.5 24t119.5 82q47 47 78 123q23 68 26 158q0 85 -26 153q-27 74 -78 125q-49 55 -119 82 q-62 26 -147 29q-85 0 -150 -29q-64 -24 -119 -82q-47 -51 -77 -125q-24 -63 -27 -153z" />
<glyph unicode="q" horiz-adv-x="1360" d="M78 539q0 121 37 225q36 97 112 176q70 72 172 115q99 36 224 39q65 0 118 -15q54 -12 109 -37q46 -22 94 -61q43 -37 80 -86v178h176v-1517h-188v618q-29 -43 -76 -84q-41 -37 -90 -59q-45 -23 -105 -33q-38 -6 -118 -10q-62 0 -111 8q-60 7 -104 29q-54 23 -97 53 q-42 30 -84 72q-33 33 -65 81q-16 28 -47 95q-15 37 -29 102q-4 37 -8 111zM274 537q0 -84 27 -158q24 -67 80 -123q50 -53 119 -82q60 -22 147 -27v3q79 0 150 24q67 24 118 82q53 53 80 123q24 66 27 158q0 86 -27 153q-23 68 -80 125q-48 55 -118 82q-65 26 -150 29 q-85 0 -147 -29q-64 -24 -119 -82q-54 -54 -80 -125q-24 -67 -27 -153z" />
<glyph unicode="r" horiz-adv-x="727" d="M164 0v1073h178v-143q21 32 55 69q29 29 64 52q34 18 76 30q33 8 88 11h22q10 0 17 -2h4h4h2h2q4 0 6 -3h6v-192q-16 0 -26 4q-15 0 -23 4q-14 0 -23 2h-20q-59 0 -109 -18q-45 -21 -75 -58q-28 -32 -47 -96q-12 -48 -15 -135v-598h-186z" />
<glyph unicode="s" horiz-adv-x="956" d="M88 309l186 2q3 -41 19 -82q13 -33 39 -55q17 -13 61 -33q37 -12 84 -12q45 0 84 12q38 14 66 35q24 18 41 53q11 29 14 70q0 48 -53 90q-46 36 -160 72q-7 2 -13 3t-16 3q-8 2 -20 6q-74 22 -146 55q-63 35 -98 70q-37 38 -57 86q-19 48 -19 107q0 61 27 120 q24 56 78 101q50 40 117 65q57 20 145 23q92 0 154 -23q70 -22 116 -65q50 -44 74 -105q25 -61 25 -137v-4h-181q0 37 -14 72t-35 55q-21 21 -57 33q-31 12 -76 12q-47 0 -78 -10q-27 -5 -59 -31q-22 -16 -41 -47q-12 -24 -12 -57q0 -31 8 -54q9 -22 28 -39q16 -12 64 -34 q7 -3 111 -35q4 0 10 -4q8 0 14 -2q102 -28 154 -52q63 -25 88 -47q28 -21 43 -45q17 -23 33 -53q9 -20 20 -61q6 -31 6 -66q0 -71 -26 -133q-27 -61 -78 -107q-48 -40 -123 -65q-64 -20 -156 -23q-89 0 -164 21q-67 18 -120 65q-47 41 -78 105q-23 55 -29 145z" />
<glyph unicode="t" horiz-adv-x="643" d="M37 913v160h139v262h193v-262h182v-160h-182v-667q0 -31 4 -45q5 -14 14 -29q7 -7 27 -16q9 -1 16 -1.5t21 -2.5l100 2v-181h-109q-75 0 -123 15q-50 13 -81 39q-27 23 -48 75q-11 44 -14 117v2v692h-139z" />
<glyph unicode="u" horiz-adv-x="1186" d="M141 465v608h191v-596q0 -85 16 -145q18 -61 51 -105q36 -44 82 -67q41 -20 111 -23q65 0 108 23q50 21 82 65q32 40 52 107q18 61 18 143v598h188v-606q0 -117 -30 -209t-88 -156t-144 -98q-82 -31 -186 -31q-101 0 -191 31q-84 33 -141 96q-52 60 -88 156 q-31 95 -31 209z" />
<glyph unicode="v" horiz-adv-x="1147" d="M23 1073h208l295 -741q0 -4 2 -10q1 -2 2 -3t2 -2.5t3 -5.5q7 -17 20 -61q5 -12 8.5 -22.5l9.5 -28.5q10 33 15 43q4 12 6 18.5t4 13.5q3 13 8 23q2 5 3.5 9.5t2.5 8.5l310 758h200l-471 -1073h-153z" />
<glyph unicode="w" horiz-adv-x="1724" d="M29 1073h198l238 -680q4 -20 8 -33q6 -15 12 -36q4 -28 9 -43q7 -22 12 -43q0 12 4 20q0 12 4 21q0 10 4 18q0 12 4 18q3 20 8 35q3 6 13 31l229 692h193l231 -682q8 -24 12 -39q3 -9 6.5 -18.5t6.5 -20.5q0 -8 2 -12q0 -8 4 -12q0 -4 2 -8l2 -5q0 -12 4 -20q0 -10 4 -18 q3 12 6 30q4 20 8 33q5 25 11 37q2 6 6 19.5t8 23.5l238 692h190l-399 -1073h-148l-266 776q0 4 -4 10q0 9 -4 13q0 8 -4 12q0 8 -4 12q0 11 -7 25q0 9 -6 29q0 -11 -6 -29q0 -13 -6 -25q0 -12 -6 -24q0 -9 -6 -21l-269 -778h-141z" />
<glyph unicode="x" horiz-adv-x="1126" d="M2 0l459 553l-436 520h237l299 -393l293 393h254l-438 -524l456 -549h-245l-314 416l-315 -416h-250z" />
<glyph unicode="y" d="M14 1073h213l279 -680q7 -21 10 -28q4 -11 14 -46q6 -21 19 -63q13 -55 22 -84q15 47 27 78q8 24 12.5 40.5t7.5 26.5q5 14 9 24.5t8 23.5q7 22 10 26l283 682h209l-668 -1517h-195l191 444z" />
<glyph unicode="z" horiz-adv-x="977" d="M43 0l553 913h-492v160h797l-557 -911h539v-162h-840z" />
<glyph unicode="{" horiz-adv-x="1024" d="M162 438v183l4 -3h4l4 -2h8h6h7q4 0 6 -2h4q65 0 106 14.5t72 45.5q24 27 39 80q12 48 12 123v247q0 70 6 123q5 45 19 82q9 31 30 55q18 24 50 39q11 7 49 23q10 4 59 16q25 5 78 8q20 2 35.5 2.5t31.5 1t35 1.5l45 2v-181q-2 0 -8 -2q-8 0 -14 2h-14h-11q-56 0 -90 -10 q-36 -6 -57 -31q-17 -17 -29 -65q-7 -32 -10 -109v-237q0 -90 -10 -135q-9 -55 -33 -88q-15 -27 -61 -58q-36 -20 -99 -37q54 -12 96 -37q40 -21 64 -55q21 -30 33 -88q6 -40 10 -133v-236q0 -69 10 -108q8 -38 31 -66q17 -20 57 -32q27 -7 90 -11h9q8 0 14 2h14h8v-176h-63 q-64 0 -92 4q-42 0 -72 9q-38 8 -59 16q-24 6 -47 20q-31 18 -50 41q-19 27 -30 56q-13 34 -19 82t-6 120v246q0 65 -12 121q-12 48 -39 80q-24 31 -72 45q-38 11 -106 14h-10h-13q-8 0 -12 -2h-8z" />
<glyph unicode="|" horiz-adv-x="1024" d="M424 -481v2046h176v-2046h-176z" />
<glyph unicode="}" horiz-adv-x="1024" d="M152 -238h8h14q8 0 12 -2h11q57 0 90 11q37 9 57 32q18 19 29 66q7 32 10 108v238q0 83 10 129q12 55 32.5 87.5t63.5 57.5q39 22 99 37q-57 14 -99 37q-42 27 -63 58q-18 30 -33 88q-7 39 -10 133v241q0 68 -10 107q-9 42 -29 65q-17 22 -55 31q-28 7 -90 10h-11h-14 q-8 0 -14 -2h-8v183h45q57 0 100 -7q45 0 78 -8q38 -8 59 -16q31 -7 49 -23q29 -12 49 -39q19 -23 31 -55q14 -34 19 -84q6 -49 6 -123v-243q0 -74 12 -125q12 -50 39 -80q22 -27 70 -45q42 -12 108 -15h4l4 2h6h9h6q4 0 6 2h4h4v-178q-2 0 -8 -2q-6 0 -12 2h-15h-8 q-63 0 -108 -14q-43 -12 -70 -45q-24 -29 -39 -80q-12 -49 -12 -123v-244q0 -69 -6 -120q-5 -45 -19 -82q-9 -31 -31 -56q-15 -20 -49 -41q-17 -11 -47 -20q-10 -4 -59 -16q-24 -6 -78 -9q-24 -1 -42 -1.5t-60 -2.5h-45v176z" />
<glyph unicode="&#xad;" horiz-adv-x="651" d="M80 453v170h491v-170h-491z" />
<glyph unicode="&#xc4;" horiz-adv-x="1489" d="M10 0l639 1567h170l662 -1567h-240l-137 360h-735l-142 -360h-217zM438 547h590l-246 629q0 3 -8 16q-6 23 -10 35q-6 19 -12 43q-8 27 -17 49q-9 -35 -14 -49q-4 -15 -12 -43q-4 -12 -7 -18.5t-6 -14.5q-3 -13 -8 -20zM449 1868v2q0 19 8 39q10 19 26 37q17 15 37 24 q12 6 43 10q24 0 43 -8q16 -5 35 -24q14 -16 25 -37q4 -14 8 -43q0 -26 -8 -45q-6 -20 -23 -37q-9 -9 -35 -23q-14 -5 -45 -8q-26 0 -45 8q-19 6 -37 23q-13 16 -24 37q-5 14 -8 45zM813 1868v2q0 19 8 39q8 17 27 37q17 17 35 24q13 6 43 10q24 0 43 -10q17 -6 37 -24 q15 -17 24 -37q5 -16 8 -41q0 -26 -8 -45q-7 -22 -22 -37q-10 -7 -17.5 -11.5t-19.5 -11.5q-15 -5 -45 -8q-24 0 -43 8q-17 5 -37 25q-19 24 -25 35q-5 14 -8 45z" />
<glyph unicode="&#xd6;" horiz-adv-x="1825" d="M88 778q0 99 16 172q18 89 48 158q29 74 75 143q46 67 107 125q51 51 117 94q63 42 135 68q66 25 149 41q76 12 162 12q84 0 164 -12q86 -13 149 -41q71 -24 136 -68q63 -41 116 -94q60 -57 105 -125q42 -60 78 -143q28 -69 45 -158q13 -67 16 -172q0 -93 -16 -170 q-14 -82 -45 -157q-31 -73 -76 -144q-41 -61 -105 -125q-53 -50 -118 -94q-61 -40 -134 -68q-68 -24 -149 -36q-66 -12 -166 -15q-92 0 -164 15q-75 12 -149 36q-66 25 -133 68q-65 43 -119 94q-57 57 -107 125q-44 71 -75 144q-26 61 -48 157q-11 73 -14 170zM297 778 q0 -65 12 -133q13 -67 35 -123q18 -48 55 -110q38 -54 78 -97q43 -38 88 -71q41 -28 99 -51q48 -18 110 -31q39 -6 121 -10v2q70 0 125 8q61 9 110 31q55 19 101 51q44 28 88 71q41 41 76 97q32 50 57 110q21 58 33 123q12 61 12 133q0 65 -12 133q-9 61 -33 123 q-21 58 -57 111q-31 49 -78 96q-35 35 -88 72q-44 28 -101 53q-55 22 -110 31q-39 6 -123 10q-70 0 -121 -10q-53 -6 -110 -31q-52 -19 -99 -53q-53 -37 -88 -72q-42 -43 -78 -94q-33 -54 -55 -111q-18 -51 -35 -123q-12 -61 -12 -135zM616 1868v2q0 20 9 39q10 19 26 37 q17 15 37 24q12 6 43 10q24 0 43 -8q16 -5 35 -24q14 -16 25 -37q4 -14 8 -43q0 -26 -8 -45q-9 -23 -23 -37q-9 -9 -35 -23q-14 -5 -45 -8q-26 0 -45 8q-19 6 -37 23q-13 16 -24 37q-6 19 -9 45zM981 1868v2q0 19 8 39q8 17 27 37q15 15 37 24q14 7 41 10q24 0 43 -10 q17 -6 37 -24q15 -17 24 -37q5 -16 8 -41q0 -26 -8 -45q-7 -22 -22 -37q-10 -7 -17.5 -11.5t-19.5 -11.5q-15 -5 -45 -8q-24 0 -43 8q-17 5 -37 25q-19 24 -25 35q-5 14 -8 45z" />
<glyph unicode="&#xdc;" horiz-adv-x="1532" d="M166 586v979h205v-967q0 -107 24 -190q26 -82 78 -140q49 -55 125 -86q68 -25 168 -28q97 0 166 28q73 28 125 86q48 53 76 140q24 79 24 188v969h207v-977q0 -146 -41 -256.5t-125 -196.5q-77 -80 -190 -125q-105 -38 -242 -41q-138 0 -246 41q-110 42 -190 125 q-78 80 -123 197q-38 104 -41 254zM469 1868v2q0 19 8 39q8 17 27 37q19 16 39 24q13 6 43 10q21 0 41 -8q17 -6 37 -24q12 -13 22 -37q4 -14 8 -43q0 -26 -8 -45q-7 -22 -22 -37q-10 -9 -35 -23q-14 -4 -43 -8q-26 0 -47 8q-20 6 -37 23q-16 20 -25 37q-5 14 -8 45z M836 1868v2q0 19 8 39q6 17 24 37q17 15 37 24q14 7 41 10q25 0 43 -10q19 -6 37 -24q14 -16 25 -37q7 -14 10 -41q0 -26 -8 -45q-5 -17 -25 -37q-7 -7 -37 -23q-14 -5 -45 -8q-23 0 -43 8q-16 5 -37 25q-10 12 -22 35q-5 14 -8 45z" />
<glyph unicode="&#xdf;" horiz-adv-x="1262" d="M61 913v160h148v49q0 101 24 185q26 82 78 139q48 54 123 86q70 26 166 29q85 0 156 -27q68 -23 125 -80q53 -47 82 -119q23 -64 26 -149q0 -48 -12 -96q-10 -48 -35 -80q-18 -32 -57 -66q-36 -28 -76 -43q81 -12 147 -49q64 -34 113 -92q45 -50 72 -129q24 -70 24 -156 q0 -111 -35 -201q-33 -88 -106 -161q-68 -68 -162 -105q-86 -32 -198 -35q-37 0 -56 4q-21 0 -49 7q-22 3 -47 12q-32 9 -45 14l45 174q9 -4 17 -7t20 -9q24 -4 37 -8q24 -4 37 -6q24 0 39 -2q64 0 120 20q55 21 99 68q41 41 65 100q20 49 23 127q0 73 -27 131 q-23 59 -74 107q-48 45 -116 69q-59 20 -146 23l-57 2v162h43q47 0 88 12q37 12 68 43q26 26 43 69q11 39 14 95q0 51 -17 86q-12 37 -43 69q-22 29 -63 47q-31 14 -82 17q-52 0 -94 -19q-38 -15 -62 -51q-24 -34 -36 -96q-13 -56 -13 -143v-1090h-186v913h-148z" />
<glyph unicode="&#xe4;" horiz-adv-x="1360" d="M78 539q0 121 37 225q36 97 112 176q70 72 172 115q99 36 224 39q65 0 118 -15q54 -12 109 -37q46 -22 94 -61q43 -37 80 -86v178h176v-1073h-188v174q-29 -43 -76 -84q-41 -37 -90 -59q-45 -23 -105 -33q-38 -6 -118 -10q-62 0 -111 8q-60 7 -104 29q-54 23 -97 53 q-42 30 -84 72q-33 33 -65 81q-16 28 -47 95q-15 37 -29 102q-4 37 -8 111zM274 537q0 -84 27 -158q24 -67 80 -123q50 -53 119 -82q60 -22 147 -27v3q79 0 150 24q67 24 118 82q53 53 80 123q24 66 27 158q0 86 -27 153q-23 68 -80 125q-48 55 -118 82q-65 26 -150 29 q-85 0 -147 -29q-64 -24 -119 -82q-54 -54 -80 -125q-24 -67 -27 -153zM334 1370v2q0 20 7.5 40.5t25.5 37.5q19 15 39 25q13 6 43 10q22 0 40 -10q19 -7 37 -25q14 -10 23 -35q5 -14 8 -45q0 -26 -8 -45q-6 -17 -21 -35q-10 -10 -34 -22q-15 -5 -45 -8q-25 0 -48 8 q-21 7 -36 22q-8 9 -23 35q-4 13 -8 45zM698 1370v2q0 20 9 41q6 19 24 37q13 13 37 25q13 6 41 10q25 0 43 -10q21 -9 37 -25q14 -14 24 -37q7 -12 11 -43q0 -27 -9 -45q-5 -14 -24 -35q-7 -7 -37 -22q-13 -4 -45 -8q-24 0 -43 8q-22 7 -37 22q-3 4 -22 37q-5 12 -9 43z " />
<glyph unicode="&#xf6;" horiz-adv-x="1266" d="M80 535q0 62 8 114q9 56 31 107q16 48 49 96q23 34 70 84q34 38 84 70q39 28 96 51q45 19 102 33q38 6 113 10v2q58 0 112 -12q55 -11 105 -31q45 -17 94 -51q43 -31 84 -72q40 -40 68 -84q29 -47 49 -96q17 -47 31 -107q6 -38 10 -114q0 -66 -10 -115q-10 -54 -31 -109 q-15 -40 -49 -96q-27 -41 -70 -84q-38 -38 -84 -70q-45 -28 -94 -49q-36 -13 -105 -28q-35 -7 -110 -11q-65 0 -113 11q-56 10 -102 28q-48 19 -96 49q-46 33 -84 70q-44 48 -70 84q-32 52 -49 96q-19 48 -31 107q-4 39 -8 117zM281 535q0 -86 24 -160q26 -68 74 -125 q52 -58 115 -86q58 -24 139 -27v2q76 0 139 25q62 27 112.5 83.5t73.5 127.5q25 69 25 160q0 85 -25 157q-23 68 -73 127q-48 54 -113 84q-56 26 -139 29q-82 0 -141 -29q-62 -27 -113 -84q-48 -54 -74 -129q-24 -67 -24 -155zM338 1370v2q0 20 7.5 40.5t25.5 37.5 q19 15 39 25q13 6 43 10q22 0 41 -10q19 -8 36 -25q14 -10 23 -35q5 -14 8 -45q0 -26 -8 -45q-6 -17 -21 -35q-10 -10 -34 -22q-15 -5 -45 -8q-26 0 -47.5 7.5t-36.5 22.5q-8 9 -23 35q-4 13 -8 45zM702 1370v2q0 17 9 41q6 19 24 37q13 13 37 25q13 6 41 10q25 0 43 -10 q21 -9 37 -25q13 -13 25 -37q6 -12 10 -43q0 -26 -8 -45q-6 -14 -25 -35q-7 -7 -37 -22q-13 -4 -45 -8q-24 0 -43 8q-22 7 -37 22q-3 4 -22 37q-2 6 -9 43z" />
<glyph unicode="&#xfc;" horiz-adv-x="1186" d="M141 465v608h191v-596q0 -85 16 -145q18 -61 51 -105q36 -44 82 -67q41 -20 111 -23q65 0 108 23q50 21 82 65q32 40 52 107q18 61 18 143v598h188v-606q0 -117 -30 -209t-88 -156t-144 -98q-82 -31 -186 -31q-101 0 -191 31q-84 33 -141 96q-52 60 -88 156 q-31 95 -31 209zM297 1370v2q0 20 8 41q11 22 27 37q19 15 39 25q13 6 43 10q22 0 41 -10q18 -8 37 -25q13 -11 22 -35q5 -14 8 -45q0 -26 -8 -45q-6 -17 -22 -35q-12 -10 -35 -22q-14 -4 -43 -8q-26 0 -47.5 7.5t-36.5 22.5q-18 22 -25 35q-4 13 -8 45zM664 1370v2 q0 20 8 41q6 19 24 37q16 14 37 25q13 6 41 10q25 0 43 -10q21 -9 37 -25q13 -13 25 -37q6 -12 10 -43q0 -26 -8 -45q-4 -12 -25 -35q-9 -9 -37 -22q-14 -5 -45 -8q-24 0 -43 8q-21 7 -37 22q-3 4 -22 37q-4 13 -8 43z" />
<glyph unicode="&#xff;" horiz-adv-x="614" d="M102 1296l19 236q0 16 18 16q8 0 15.5 -5.5t7.5 -16.5l-19 -205l62 6q22 -3 22 -20t-18 -17l-86 -12q-21 0 -21 18zM250 1485q0 18 20 18q19 0 19 -18l8 -99l74 224q3 14 18 14q21 0 21 -25l-107 -323q-7 -23 -24 -23t-17 19zM362 1241q14 46 57.5 79t53.5 64q0 9 4 25 q0 11 -8 14q-49 0 -49 -14q0 -31 -21 -31q-11 0 -14 8q-4 14 -4 19q0 24 26 41.5t54 17.5q17 0 35 -10q22 -16 22 -43q0 -7 -4 -29q-6 -27 -20 -42t-41 -38t-39 -45q24 0 37 -0.5t28 -1.5q19 0 25 7q5 8 14 8q23 -4 23 -25q0 -6 -6 -12q-15 -14 -43 -14q-12 1 -23.5 1.5 t-34.5 0.5q-31 0 -49 -4q-14 0 -18.5 4t-4.5 20z" />
<glyph unicode="&#x2000;" horiz-adv-x="990" />
<glyph unicode="&#x2001;" horiz-adv-x="1980" />
<glyph unicode="&#x2002;" horiz-adv-x="990" />
<glyph unicode="&#x2003;" horiz-adv-x="1980" />
<glyph unicode="&#x2004;" horiz-adv-x="660" />
<glyph unicode="&#x2005;" horiz-adv-x="495" />
<glyph unicode="&#x2006;" horiz-adv-x="330" />
<glyph unicode="&#x2007;" horiz-adv-x="330" />
<glyph unicode="&#x2008;" horiz-adv-x="247" />
<glyph unicode="&#x2009;" horiz-adv-x="396" />
<glyph unicode="&#x200a;" horiz-adv-x="110" />
<glyph unicode="&#x2010;" horiz-adv-x="651" d="M80 453v170h491v-170h-491z" />
<glyph unicode="&#x2011;" horiz-adv-x="651" d="M80 453v170h491v-170h-491z" />
<glyph unicode="&#x2012;" horiz-adv-x="651" d="M80 453v170h491v-170h-491z" />
<glyph unicode="&#x2013;" horiz-adv-x="1024" d="M0 471v129h1024v-129h-1024z" />
<glyph unicode="&#x2014;" horiz-adv-x="2048" d="M0 471v129h2048v-129h-2048z" />
<glyph unicode="&#x2018;" horiz-adv-x="567" d="M53 1098l250 495l137 -53l-184 -524z" />
<glyph unicode="&#x2019;" horiz-adv-x="567" d="M53 1067l191 526l196 -82l-245 -495z" />
<glyph unicode="&#x201a;" horiz-adv-x="567" d="M53 -279l191 527l196 -82l-245 -498z" />
<glyph unicode="&#x201c;" horiz-adv-x="1006" d="M53 1098l250 495l137 -53l-184 -524zM492 1098l247 495l140 -53l-191 -524z" />
<glyph unicode="&#x201d;" horiz-adv-x="1006" d="M53 1067l191 526l196 -82l-245 -495zM492 1067l188 526l199 -82l-248 -495z" />
<glyph unicode="&#x201e;" horiz-adv-x="1006" d="M53 -279l191 527l196 -82l-245 -498zM492 -279l188 527l199 -82l-248 -498z" />
<glyph unicode="&#x2022;" horiz-adv-x="512" />
<glyph unicode="&#x202f;" horiz-adv-x="396" />
<glyph unicode="&#x205f;" horiz-adv-x="495" />
<glyph unicode="&#xe000;" horiz-adv-x="1075" d="M0 0v1075h1075v-1075h-1075z" />
</font>
</defs>
</svg>
